<mxfile host="app.diagrams.net" agent="Mozilla/5.0 (Macintosh; Intel Mac OS X 10.15; rv:109.0) Gecko/20100101 Firefox/115.0" version="24.7.7">
  <diagram name="Page-1" id="CfUTesBL_JperRT77kZo">
    <mxGraphModel dx="1306" dy="748" grid="1" gridSize="10" guides="1" tooltips="1" connect="1" arrows="1" fold="1" page="1" pageScale="1" pageWidth="850" pageHeight="1100" math="0" shadow="0">
      <root>
        <mxCell id="0" />
        <mxCell id="1" parent="0" />
        <mxCell id="6XCcRIYKVGMhF-Amfs3G-1" value="&lt;font face=&quot;Verdana&quot;&gt;&lt;b&gt;Amazon Web Services&lt;br&gt;&lt;/b&gt;&lt;/font&gt;" style="rounded=1;whiteSpace=wrap;html=1;strokeWidth=3;dashed=1;verticalAlign=top;" vertex="1" parent="1">
          <mxGeometry x="130" y="38" width="620" height="282" as="geometry" />
        </mxCell>
        <mxCell id="6XCcRIYKVGMhF-Amfs3G-2" value="&lt;b&gt;&lt;font face=&quot;Verdana&quot;&gt;S3 Bucket&lt;/font&gt;&lt;/b&gt;" style="sketch=0;outlineConnect=0;fontColor=#232F3E;gradientColor=none;fillColor=#7AA116;strokeColor=none;dashed=0;verticalLabelPosition=bottom;verticalAlign=top;align=center;html=1;fontSize=12;fontStyle=0;aspect=fixed;pointerEvents=1;shape=mxgraph.aws4.bucket_with_objects;" vertex="1" parent="1">
          <mxGeometry x="620" y="190" width="75" height="78" as="geometry" />
        </mxCell>
        <mxCell id="6XCcRIYKVGMhF-Amfs3G-5" value="" style="sketch=0;points=[[0,0,0],[0.25,0,0],[0.5,0,0],[0.75,0,0],[1,0,0],[0,1,0],[0.25,1,0],[0.5,1,0],[0.75,1,0],[1,1,0],[0,0.25,0],[0,0.5,0],[0,0.75,0],[1,0.25,0],[1,0.5,0],[1,0.75,0]];outlineConnect=0;fontColor=#232F3E;fillColor=#ED7100;strokeColor=#ffffff;dashed=0;verticalLabelPosition=bottom;verticalAlign=top;align=center;html=1;fontSize=12;fontStyle=0;aspect=fixed;shape=mxgraph.aws4.resourceIcon;resIcon=mxgraph.aws4.lambda;" vertex="1" parent="1">
          <mxGeometry x="430" y="150" width="78" height="78" as="geometry" />
        </mxCell>
        <mxCell id="6XCcRIYKVGMhF-Amfs3G-6" value="&lt;font face=&quot;Verdana&quot;&gt;&lt;b&gt;publish&lt;br&gt;event&lt;br&gt;&lt;/b&gt;&lt;/font&gt;" style="edgeStyle=orthogonalEdgeStyle;rounded=0;orthogonalLoop=1;jettySize=auto;html=1;fillColor=#dae8fc;strokeColor=#6c8ebf;strokeWidth=4;entryX=1;entryY=0.5;entryDx=0;entryDy=0;entryPerimeter=0;" edge="1" parent="1" source="6XCcRIYKVGMhF-Amfs3G-2" target="6XCcRIYKVGMhF-Amfs3G-5">
          <mxGeometry x="-0.1198" y="-10" relative="1" as="geometry">
            <mxPoint x="430" y="130" as="sourcePoint" />
            <mxPoint x="566" y="130" as="targetPoint" />
            <mxPoint as="offset" />
          </mxGeometry>
        </mxCell>
        <mxCell id="6XCcRIYKVGMhF-Amfs3G-7" value="&lt;b&gt;&lt;font face=&quot;Verdana&quot;&gt;Application&lt;/font&gt;&lt;/b&gt;" style="sketch=0;outlineConnect=0;fontColor=#232F3E;gradientColor=none;fillColor=#ED7100;strokeColor=none;dashed=0;verticalLabelPosition=bottom;verticalAlign=top;align=center;html=1;fontSize=12;fontStyle=0;aspect=fixed;pointerEvents=1;shape=mxgraph.aws4.ec2_m1_mac_instance;" vertex="1" parent="1">
          <mxGeometry x="620" y="60" width="70" height="70" as="geometry" />
        </mxCell>
        <mxCell id="6XCcRIYKVGMhF-Amfs3G-8" value="&lt;font face=&quot;Verdana&quot;&gt;&lt;b&gt;publish&lt;br&gt;event&lt;br&gt;&lt;/b&gt;&lt;/font&gt;" style="edgeStyle=orthogonalEdgeStyle;rounded=0;orthogonalLoop=1;jettySize=auto;html=1;fillColor=#dae8fc;strokeColor=#6c8ebf;strokeWidth=4;" edge="1" parent="1" source="6XCcRIYKVGMhF-Amfs3G-7" target="6XCcRIYKVGMhF-Amfs3G-5">
          <mxGeometry x="-0.1198" y="-10" relative="1" as="geometry">
            <mxPoint x="630" y="239" as="sourcePoint" />
            <mxPoint x="518" y="199" as="targetPoint" />
            <mxPoint as="offset" />
          </mxGeometry>
        </mxCell>
        <mxCell id="6XCcRIYKVGMhF-Amfs3G-9" value="&lt;b&gt;&lt;font face=&quot;Verdana&quot;&gt;Document Store (NoSQL)&lt;/font&gt;&lt;/b&gt;" style="sketch=0;points=[[0,0,0],[0.25,0,0],[0.5,0,0],[0.75,0,0],[1,0,0],[0,1,0],[0.25,1,0],[0.5,1,0],[0.75,1,0],[1,1,0],[0,0.25,0],[0,0.5,0],[0,0.75,0],[1,0.25,0],[1,0.5,0],[1,0.75,0]];outlineConnect=0;fontColor=#232F3E;fillColor=#C925D1;strokeColor=#ffffff;dashed=0;verticalLabelPosition=bottom;verticalAlign=top;align=center;html=1;fontSize=12;fontStyle=0;aspect=fixed;shape=mxgraph.aws4.resourceIcon;resIcon=mxgraph.aws4.documentdb_with_mongodb_compatibility;" vertex="1" parent="1">
          <mxGeometry x="250" y="150" width="78" height="78" as="geometry" />
        </mxCell>
        <mxCell id="6XCcRIYKVGMhF-Amfs3G-10" value="&lt;font face=&quot;Verdana&quot;&gt;&lt;b&gt;publish&lt;br&gt;event&lt;br&gt;&lt;/b&gt;&lt;/font&gt;" style="edgeStyle=orthogonalEdgeStyle;rounded=0;orthogonalLoop=1;jettySize=auto;html=1;fillColor=#dae8fc;strokeColor=#6c8ebf;strokeWidth=4;entryX=1;entryY=0.5;entryDx=0;entryDy=0;entryPerimeter=0;exitX=0;exitY=0.5;exitDx=0;exitDy=0;exitPerimeter=0;" edge="1" parent="1" source="6XCcRIYKVGMhF-Amfs3G-5" target="6XCcRIYKVGMhF-Amfs3G-9">
          <mxGeometry x="-0.1198" y="-10" relative="1" as="geometry">
            <mxPoint x="630" y="239" as="sourcePoint" />
            <mxPoint x="518" y="199" as="targetPoint" />
            <mxPoint as="offset" />
          </mxGeometry>
        </mxCell>
      </root>
    </mxGraphModel>
  </diagram>
</mxfile>
